<?xml version="1.0" encoding="utf-8"?><!-- Uploaded to: SVG Repo, www.svgrepo.com, Generator: SVG Repo Mixer Tools -->
<svg fill="#000000" width="800px" height="800px" viewBox="0 0 24 24" id="medical-report" data-name="Flat Color" xmlns="http://www.w3.org/2000/svg" class="icon flat-color"><rect id="primary" x="4" y="5" width="16" height="17" rx="2" style="fill: rgb(0, 0, 0);"></rect><path id="secondary" d="M16,6h0a1,1,0,0,1-1,1H9A1,1,0,0,1,8,6H8A2,2,0,0,1,9.1,4.21a3,3,0,0,1,5.79,0A2,2,0,0,1,16,6Zm-2,7H13V12a1,1,0,0,0-2,0v1H10a1,1,0,0,0,0,2h1v1a1,1,0,0,0,2,0V15h1a1,1,0,0,0,0-2Z" style="fill: rgb(44, 169, 188);"></path></svg>